# xmcd
#
# Track frame offsets:
#	150
#	14683
#	25626
#	38302
#	52907
#	66180
#	80434
#	94597
#	109486
#	121491
#	134449
#	145713
#
# Disc length: 2085 seconds
#
# Revision: 0
# Processed by: cddbd v1.4PL0 Copyright (c) Steve Scherf et al.
# Submitted via: audiograbber 1.81.03
#
DISCID=9808230c
DTITLE=Dino Rocha - Pantanal
DYEAR=2000
DGENRE=Vocal
TTITLE0=Dino Rocha 1
TTITLE1=Dino Rocha - Pantanal
TTITLE2=Dino Rocha 3
TTITLE3=Dino Rocha 4
TTITLE4=Dino Rocha 5
TTITLE5=Dino Rocha 6
TTITLE6=Dino Rocha 7
TTITLE7=Dino Rocha 8
TTITLE8=Dino Rocha 9
TTITLE9=Dino Rocha 10
TTITLE10=Dino Rocha 11
TTITLE11=Dino Rocha 12
EXTD=
EXTT0=
EXTT1=
EXTT2=
EXTT3=
EXTT4=
EXTT5=
EXTT6=
EXTT7=
EXTT8=
EXTT9=
EXTT10=
EXTT11=
PLAYORDER=
